HIERARCHY
ROOT root
{
	OFFSET 0.000000 0.000000 0.000000
	CHANNELS 6 Xposition Yposition Zposition Zrotation Yrotation Xrotation
	JOINT lhip
	{
		OFFSET 0.058581 -0.082280 -0.017664
		CHANNELS 3 Zrotation Yrotation Xrotation
		JOINT lknee
		{
			OFFSET 0.043451 -0.386469 0.008037
			CHANNELS 3 Zrotation Yrotation Xrotation
			JOINT lankle
			{
				OFFSET -0.014790 -0.426874 -0.037428
				CHANNELS 3 Zrotation Yrotation Xrotation
				JOINT ltoe
				{
					OFFSET 0.041054 -0.060286 0.122042
					CHANNELS 3 Zrotation Yrotation Xrotation
					End Site
					{
						OFFSET 0.000000 0.000000 0.000000
					}
				}
			}
		}
	}
	JOINT rhip
	{
		OFFSET -0.060310 -0.090513 -0.013543
		CHANNELS 3 Zrotation Yrotation Xrotation
		JOINT rknee
		{
			OFFSET -0.043257 -0.383688 -0.004843
			CHANNELS 3 Zrotation Yrotation Xrotation
			JOINT rankle
			{
				OFFSET 0.019056 -0.420046 -0.034562
				CHANNELS 3 Zrotation Yrotation Xrotation
				JOINT rtoe
				{
					OFFSET -0.034840 -0.062106 0.130323
					CHANNELS 3 Zrotation Yrotation Xrotation
					End Site
					{
						OFFSET 0.000000 0.000000 0.000000
					}
				}
			}
		}
	}
	JOINT lowerback
	{
		OFFSET 0.004439 0.124404 -0.038385
		CHANNELS 3 Zrotation Yrotation Xrotation
		JOINT upperback
		{
			OFFSET 0.004488 0.137956 0.026820
			CHANNELS 3 Zrotation Yrotation Xrotation
			JOINT chest
			{
				OFFSET -0.002265 0.056032 0.002855
				CHANNELS 3 Zrotation Yrotation Xrotation
				JOINT lowerneck
				{
					OFFSET -0.013390 0.211636 -0.033468
					CHANNELS 3 Zrotation Yrotation Xrotation
					JOINT upperneck
					{
						OFFSET 0.010113 0.088937 0.050410
						CHANNELS 3 Zrotation Yrotation Xrotation
						End Site
						{
							OFFSET 0.000000 0.000000 0.000000
						}
					}
				}
				JOINT lclavicle
				{
					OFFSET 0.071702 0.114000 -0.018898
					CHANNELS 3 Zrotation Yrotation Xrotation
					JOINT lshoulder
					{
						OFFSET 0.122921 0.045205 -0.019046
						CHANNELS 3 Zrotation Yrotation Xrotation
						JOINT lelbow
						{
							OFFSET 0.255332 -0.015649 -0.022946
							CHANNELS 3 Zrotation Yrotation Xrotation
							JOINT lwrist
							{
								OFFSET 0.265709 0.012698 -0.007375
								CHANNELS 3 Zrotation Yrotation Xrotation
								End Site
								{
									OFFSET 0.000000 0.000000 0.000000
								}
							}
						}
					}
				}
				JOINT rclavicle
				{
					OFFSET -0.082954 0.112472 -0.023707
					CHANNELS 3 Zrotation Yrotation Xrotation
					JOINT rshoulder
					{
						OFFSET -0.113228 0.046853 -0.008472
						CHANNELS 3 Zrotation Yrotation Xrotation
						JOINT relbow
						{
							OFFSET -0.260127 -0.014369 -0.031269
							CHANNELS 3 Zrotation Yrotation Xrotation
							JOINT rwrist
							{
								OFFSET -0.269108 0.006794 -0.006027
								CHANNELS 3 Zrotation Yrotation Xrotation
								End Site
								{
									OFFSET 0.000000 0.000000 0.000000
								}
							}
						}
					}
				}
			}
		}
	}
}
MOTION
Frames: 17
Frame Time: 0.033333
-2.217400 0.247406 1.011102 86.948624 -2.662980 88.947297 -5.239804 -6.440137 -6.829510 -4.891207 -9.183401 3.350917 8.048000 5.443395 -1.952442 0.000000 -0.000000 0.000000 -2.086365 -1.234195 -4.348453 0.777501 1.205445 51.536880 8.874588 -9.346067 25.379676 0.000000 -0.000000 0.000000 -4.101440 2.454229 16.020830 1.142514 0.263673 -6.007354 -0.243186 -0.714059 1.211145 0.047780 2.172545 -2.196516 -3.716016 2.135334 13.483922 -27.832326 9.227304 0.213909 -54.062682 -3.266929 9.923065 7.941224 -28.669148 7.577797 -5.887001 -4.496309 -5.754874 29.750774 -2.709790 -0.535383 54.886745 5.587777 18.068888 -13.125469 24.307298 -9.251949 8.505115 4.550942 -6.168724 
-2.187122 0.249768 1.012700 86.594543 -2.694672 87.969452 -6.133336 -5.146019 -3.356872 -4.609796 -10.507928 2.795024 8.740402 5.880966 -3.116792 0.000000 -0.000000 0.000000 -2.526660 -0.800100 -8.615969 -0.171724 0.149079 58.259244 5.743975 -11.603283 22.409827 0.000000 -0.000000 0.000000 -4.586051 1.312221 16.163626 1.139968 1.152657 -6.144084 -0.131430 -0.907862 1.720855 0.536096 2.873512 -1.836022 -4.330126 2.580658 13.670266 -27.991433 9.097513 0.150990 -53.167259 -4.154788 9.560680 7.603495 -29.179192 7.945034 -5.567725 -4.415403 -5.920444 30.378055 -2.489244 -0.765020 54.461021 5.690753 18.232484 -13.714266 24.580001 -9.815614 8.144278 4.211540 -6.069683 
-2.155261 0.251121 1.014711 86.033696 -2.499394 86.740964 -6.537787 -3.319662 0.919538 -4.286374 -12.501551 1.216551 9.021345 6.783738 -4.060997 0.000000 -0.000000 0.000000 -2.643421 -0.096031 -11.495223 -1.206289 -0.899001 61.589003 3.601407 -12.217283 15.061247 0.000000 -0.000000 0.000000 -4.765249 0.001261 15.840368 1.148137 2.092576 -5.319509 0.047267 -0.790025 1.689045 0.755573 3.832400 -0.736854 -4.851566 2.663294 13.383027 -27.596588 8.560711 0.483981 -53.181470 -4.735059 9.053898 8.041449 -29.427514 7.744543 -5.344227 -3.921355 -6.834111 30.300342 -2.011937 -0.594058 54.609637 5.578263 17.572747 -14.406002 24.911778 -10.145664 8.269035 3.761468 -6.826437 
-2.116679 0.253474 1.016179 86.425278 -1.896987 85.787161 -6.419515 -1.804964 5.084100 -3.918639 -14.489383 0.058058 9.260224 7.419909 -5.432484 0.000000 -0.000000 0.000000 -2.593653 0.435568 -15.050331 -1.431600 -2.522001 62.030140 3.212215 -11.607191 7.847121 0.000000 -0.000000 0.000000 -4.059100 -1.903471 15.005065 1.187836 2.401236 -4.289508 -0.085311 -0.780002 1.940244 0.991822 4.932013 -0.173768 -5.182670 2.454789 13.398311 -27.289465 7.849742 0.650155 -53.107995 -5.384203 8.693816 8.721322 -29.956733 6.496660 -4.801174 -3.613391 -7.219127 30.253578 -1.682826 -0.382776 54.627231 5.754738 16.777214 -15.009818 25.546623 -10.334971 8.167049 3.564550 -7.396587 
-2.093702 0.254813 1.016420 86.488085 -1.548762 85.923124 -6.173501 -0.664318 6.565710 -3.845899 -15.689831 -0.121091 8.920360 7.748136 -6.651998 0.000000 -0.000000 0.000000 -2.541373 0.928113 -17.814302 -0.947143 -3.311784 60.435919 3.092806 -11.338452 4.478090 0.000000 -0.000000 0.000000 -3.827966 -3.005073 15.891972 1.052541 3.112011 -6.396449 0.065656 -0.965354 1.458578 1.309214 5.284348 0.583576 -5.368514 2.387338 14.355601 -26.962445 8.676486 0.492132 -52.938176 -5.122276 8.669928 8.142241 -30.347197 7.100707 -4.318624 -4.134460 -7.366174 30.183357 -2.824522 -0.206943 54.427002 4.950833 16.786604 -14.856614 26.558230 -9.959042 7.966822 3.686477 -7.677266 
-2.073029 0.257063 1.014583 90.016981 -0.503902 85.064540 -4.939830 -1.095648 7.340100 -4.819233 -16.542338 2.877788 8.446667 6.287011 -9.242065 0.000000 -0.000000 0.000000 -2.629497 0.022392 -20.131513 -0.194406 -6.123170 56.390547 3.344284 -10.875772 -1.795370 0.000000 -0.000000 0.000000 -1.986808 -2.998717 16.848741 1.638634 0.616824 -5.479268 -0.406853 -2.330954 1.927672 1.527286 6.160146 -1.156421 -5.417964 1.380212 14.637512 -26.518075 6.617013 0.784519 -53.247814 -6.846348 8.739439 9.208381 -30.897402 5.078058 -3.566221 -4.002866 -7.229575 29.959716 -1.615827 -0.722346 54.251479 5.420370 15.927975 -15.074608 27.187881 -10.424211 7.899289 3.728357 -7.933511 
-2.044767 0.258156 1.012799 91.216311 -0.066376 85.050063 -4.398162 -0.483604 8.932452 -4.892579 -17.639138 3.432241 7.950978 5.963268 -10.789165 0.000000 -0.000000 0.000000 -2.814725 -0.459922 -21.983096 -0.739377 -8.073883 49.919477 5.405953 -11.095990 -2.962214 0.000000 -0.000000 0.000000 -1.480000 -3.512267 17.691106 1.652273 0.343039 -6.279238 -0.075598 -3.045004 2.047711 1.341939 5.982560 -2.533290 -5.194933 1.327782 14.479839 -26.597192 7.119945 -0.063851 -52.792325 -7.349531 9.015825 8.472720 -32.119688 5.796112 -2.731630 -4.399294 -6.878900 30.109091 -2.447322 -1.956874 53.555622 4.744537 15.889224 -14.159885 28.020573 -9.922960 7.528001 3.868336 -7.717240 
-2.019880 0.257662 1.009653 91.048282 0.323429 84.826999 -3.788676 0.230075 10.826094 -5.005683 -17.965085 3.429719 7.299316 6.084752 -11.861374 0.000000 -0.000000 0.000000 -2.542643 0.261675 -23.333766 -1.368892 -9.827082 41.807254 6.079846 -11.695438 -4.146171 0.000000 -0.000000 0.000000 -1.400324 -4.251953 18.369573 1.534044 0.663781 -6.326172 0.244232 -2.805785 1.902428 1.459141 6.386809 -2.629828 -4.971731 0.902306 14.560715 -25.892494 6.312890 0.190950 -53.000638 -8.025543 9.213618 8.985788 -32.691757 5.174153 -2.051275 -4.875528 -6.871300 30.099674 -1.921189 -1.491060 53.539903 5.069617 15.855030 -14.590014 27.958718 -10.082068 6.682058 3.940860 -7.173370 
-1.991511 0.256727 1.006729 91.067558 0.299422 85.404178 -3.601516 0.753254 12.399829 -4.752903 -18.229017 2.879585 6.915369 5.959082 -12.972076 0.000000 -0.000000 0.000000 -2.135447 0.085140 -24.041390 -1.279030 -10.233339 31.359742 6.228640 -11.932314 -2.419214 0.000000 -0.000000 0.000000 -1.574469 -4.235654 18.777014 1.305422 0.903800 -7.438579 0.727143 -3.127523 1.755206 1.260286 6.029883 -2.860651 -4.500455 0.857018 14.630757 -25.728478 6.942397 0.033281 -52.739132 -8.649742 9.349514 8.373126 -33.223828 5.819226 -1.971449 -5.353242 -6.745168 30.169857 -2.649984 -1.805311 53.491942 4.620393 16.015524 -13.887646 27.384089 -9.745613 6.858313 3.838541 -7.367958 
-1.956618 0.254854 1.000897 91.732427 0.186169 85.993922 -3.269219 1.342945 13.747616 -4.988910 -17.697117 3.453904 6.312466 5.057504 -14.135291 0.000000 -0.000000 0.000000 -1.345345 -1.219313 -23.731741 -0.705483 -9.748525 17.253746 7.271697 -10.835552 2.055800 0.000000 -0.000000 0.000000 -1.513208 -3.765761 17.163356 1.335581 -0.030963 -5.692536 1.000142 -3.209105 1.763233 0.781493 5.660577 -2.920001 -3.688952 0.559283 13.983375 -25.337831 5.809597 0.575588 -53.013077 -9.782467 9.444615 9.195019 -33.523511 4.647501 -1.379072 -5.281419 -6.432753 30.243492 -2.136086 -1.229550 53.747896 5.507026 15.580856 -14.304089 26.184563 -9.792527 6.483686 3.907530 -6.800265 
-1.926113 0.252593 0.996504 92.095286 0.102796 86.362110 -2.741925 1.978698 14.890052 -5.444828 -17.622891 4.291102 5.565551 4.714352 -14.843384 0.000000 -0.000000 0.000000 -0.759181 -1.442139 -22.287561 -0.152785 -8.664734 7.018490 9.196505 -8.325736 1.392585 0.000000 -0.000000 0.000000 -1.258405 -3.597112 16.671761 1.107738 -0.465849 -5.414622 1.045011 -3.327026 1.714801 0.549994 5.748330 -2.754285 -3.313412 0.192017 13.681279 -25.169691 5.647837 0.521908 -53.018968 -10.178592 9.497515 9.244080 -33.295295 4.451714 -1.021851 -5.707891 -6.179637 30.159224 -2.101833 -1.171854 54.133946 5.405788 15.307590 -13.641406 24.794239 -9.123974 6.224944 3.855816 -7.141374 
-1.894844 0.250049 0.992977 92.457122 -0.010262 86.367307 -2.317049 2.234089 16.153613 -5.840838 -18.345931 5.759346 4.744411 4.383994 -15.385054 0.000000 -0.000000 0.000000 -0.527609 -1.294642 -21.928871 0.281327 -8.674824 4.126128 11.167567 -6.995096 -0.606564 0.000000 -0.000000 0.000000 -1.304995 -3.749308 16.909612 1.026022 -0.482261 -5.326651 1.077436 -3.259284 1.805715 0.669793 5.984188 -3.524374 -3.395843 -0.333452 14.056544 -25.204880 5.804254 -0.171368 -53.081416 -10.424171 9.660376 8.843841 -32.873538 4.716993 -0.918786 -5.977115 -5.399169 30.702452 -2.291093 -1.683695 53.809497 5.251233 15.029944 -12.865058 23.399245 -8.644478 6.353649 3.833599 -6.344914 
-1.861747 0.247592 0.990678 92.660774 -0.030354 86.520668 -2.157893 1.893561 17.136008 -6.125121 -19.763429 7.746477 3.969985 4.722946 -15.034114 0.000000 -0.000000 0.000000 -0.495945 0.005741 -22.857343 0.506195 -8.604724 7.837255 10.692083 -7.649258 0.072528 0.000000 -0.000000 0.000000 -1.332566 -4.296367 17.108743 1.103077 0.110732 -5.834973 0.999497 -3.325118 1.738742 0.768459 5.958717 -3.478389 -3.783723 -0.261354 14.481216 -25.709375 6.360821 -0.333031 -52.960943 -10.319683 9.781811 8.737446 -32.575398 4.891388 -1.593868 -5.455643 -5.160385 31.271675 -2.613553 -1.743307 53.437147 4.906016 15.185650 -12.511922 21.785832 -8.769934 6.905205 3.748075 -5.981687 
-1.825948 0.244008 0.990196 92.830882 -0.001458 86.334763 -1.953163 1.419418 18.507372 -6.464022 -20.566255 9.870892 2.804889 4.627968 -13.530279 0.000000 -0.000000 0.000000 0.187885 1.411767 -22.631081 -0.296297 -8.244949 11.649688 9.338249 -7.668487 1.960209 0.000000 -0.000000 0.000000 -1.460595 -4.666576 16.467490 1.344937 0.339422 -4.853787 0.973870 -3.232095 1.876925 0.800383 6.146534 -3.606871 -4.047547 0.110783 14.563815 -26.295965 6.794877 -0.306896 -52.996440 -10.159924 9.763423 9.127547 -32.116680 4.520924 -2.235265 -5.577643 -5.380280 31.843058 -2.529920 -2.053311 53.238223 4.972502 15.312505 -12.209297 19.392707 -8.644039 7.290556 3.861049 -5.896641 
-1.788916 0.240380 0.993448 92.833768 0.248004 86.588898 -2.022360 0.712582 18.658782 -6.636163 -21.029245 13.165528 1.395273 4.412410 -11.033559 0.000000 -0.000000 0.000000 0.540139 2.687381 -22.218619 -0.322237 -7.046412 13.583506 7.659376 -8.375015 4.255757 0.000000 -0.000000 0.000000 -1.225589 -5.029337 15.663040 1.586954 0.716016 -4.518758 0.912049 -3.254070 1.787405 0.892928 6.114012 -3.332387 -4.453704 0.480428 15.263243 -27.102744 7.694299 -0.351637 -53.145983 -9.655913 9.936145 9.131530 -30.639261 4.513041 -2.894570 -5.775113 -5.330081 32.435298 -2.829557 -1.935882 52.865297 4.925765 15.678452 -12.030319 17.466961 -9.154488 7.409760 3.812385 -5.973623 
-1.750235 0.236914 0.999780 92.514699 0.830714 86.616364 -1.831196 0.526428 17.786530 -7.111360 -20.377860 18.438690 -1.833653 3.843879 -6.176454 0.000000 -0.000000 0.000000 1.340364 3.260216 -20.776991 0.098721 -6.791099 15.456932 5.346579 -7.677885 3.588075 0.000000 -0.000000 0.000000 -0.488530 -5.175608 15.052691 1.864420 0.930348 -4.065937 0.790441 -3.048896 1.570247 0.731505 6.034791 -3.044021 -4.521443 0.762168 15.306900 -27.737492 8.627065 -0.273643 -53.762849 -8.407073 9.969142 9.439367 -29.801712 4.311424 -3.642919 -5.721896 -5.469759 32.609047 -3.169565 -1.886319 52.703291 4.719550 15.270049 -12.023082 15.342833 -9.039593 7.408549 3.068308 -6.154389 
-1.713862 0.233184 1.007020 93.012952 1.275818 86.511341 -1.445607 -0.203163 14.302058 -9.125250 -19.471533 27.163047 -5.404514 1.832128 1.874346 0.000000 -0.000000 0.000000 2.196578 3.174150 -18.199102 0.380817 -6.817560 15.520341 3.017406 -7.069358 2.320048 0.000000 -0.000000 0.000000 0.333616 -4.444251 15.255234 2.203771 0.178317 -4.045552 0.569214 -3.377352 1.125303 0.483016 5.839852 -2.692852 -4.302316 0.943396 15.319975 -27.677767 9.062423 0.310767 -54.650257 -7.262744 10.165147 9.590996 -28.705075 4.641125 -4.509057 -5.471515 -6.066248 32.567592 -3.380043 -1.771558 52.686215 4.592557 14.802538 -11.820056 13.958262 -8.843936 7.649454 2.620248 -6.729648 
